<svg xmlns="http://www.w3.org/2000/svg" version="1.1" xmlns:xlink="http://www.w3.org/1999/xlink" xmlns:svgjs="http://svgjs.dev/svgjs" width="2000" height="2250" viewBox="0 0 2000 2250"><g transform="matrix(1,0,0,1,3.410605131648481e-13,0)"><svg viewBox="0 0 320 360" data-background-color="#ffffff" preserveAspectRatio="xMidYMid meet" height="2250" width="2000" xmlns="http://www.w3.org/2000/svg" xmlns:xlink="http://www.w3.org/1999/xlink"><g id="tight-bounds" transform="matrix(1,0,0,1,0,0)"><svg viewBox="0 0 320 360" height="360" width="320"><g><svg></svg></g><g><svg viewBox="0 0 320 360" height="360" width="320"><g><path d="M20.961 227.22l3.726 4.658-1.863-6.056c-0.466-2.795-3.726 0.466-1.863 1.398M25.153 224.425c1.397 2.329 2.795 4.658 2.795 6.987 0 3.261 2.795 4.658 5.123 5.589-3.261-3.726-5.124-13.974-7.918-12.576M204.017 26.929c7.918 0 15.371-0.932 23.756 0.931 20.495 5.124 37.729 15.371 49.374 29.811l32.606 52.169c1.397 13.042 4.192 27.482 3.726 43.319 3.261 0 2.795-4.658 6.521-5.59-3.726 9.316-5.59 20.961-6.521 34.469-2.329-7.453 0-18.632 0.466-24.687-3.261 5.124-5.124 1.397-5.124-0.932 0.466-3.726-1.397-3.261-2.795-4.658-5.124-4.658-8.384-9.782-12.11-17.7 2.329-6.055 2.795-14.905-4.658-19.563-2.329-1.397-5.124-3.726-6.521-7.453-1.863-5.124-5.124-11.179-4.193-19.097 0.466-2.329-6.987 5.124-11.179 1.863-18.166-12.576-36.332-27.016-58.224-39.127-11.645 0-20.029-4.192-24.221-9.316-3.726-4.658-0.932-10.713 4.658-11.179 3.261 0 6.987-0.932 9.782 0.932 0.466-1.863 2.329-4.192 4.657-4.192M157.904 16.215l0.932 0.466c4.658 0.932 6.987 7.453 12.11 5.124 0 3.261 0.466 6.521-0.466 8.85-1.397 3.726-5.59 3.726-8.85 3.726-31.208-1.863-49.374 11.179-68.471 22.358-5.124 3.261-10.713 5.59-14.906 9.782-20.029 18.632-41.921 35.866-47.045 70.335l-4.192 38.195c-0.466 4.192-5.124 8.384-4.192 13.508l3.26 22.824c-3.261-3.261-5.124 0.932-4.192 2.795 0.466 1.397 2.329 6.055 5.124 1.863 3.726 6.987 7.453 20.495 12.576 26.55 15.837 18.632 36.332 35.4 53.101 52.169 4.192-0.932 7.453-0.932 8.384-3.727 1.397 2.795-1.397 5.59-3.726 6.056 7.453 4.658 15.837 8.85 27.016 9.781 14.44 0.932 27.948 3.261 40.524 6.522 6.521-1.863 13.042-2.795 20.029-3.261 2.329 0 3.726-3.726 6.521-4.658l0.466-4.658c2.795 4.192 2.329-1.397 0.466-4.192 3.261 2.795 4.192 5.124 5.589 6.987 0-1.397 3.726-6.521 3.727-0.466l0.931-6.055c1.397-0.932 1.863 5.124 3.261 0.931 1.397-4.192 4.192-0.932 6.987-2.329-0.932 1.863-0.466 5.59 2.794 3.261l3.727-3.261c2.329 5.59 6.055 3.261 7.918 2.329 20.495-13.042 40.99-28.413 60.553-43.784l-0.466 6.055 2.329-7.453c2.329 2.329 4.192 0.466 5.124-0.931 2.795-4.658 6.521-9.316 12.577-13.508-7.453 20.029-16.303 35.866-27.482 48.908l-4.658 5.59c0 3.261-0.932 7.453-4.658 7.918-1.863 0.466-5.59-0.932-8.384 1.863-1.397 1.863 3.261 5.59-0.466 2.795-3.261-2.329-6.521 0-10.248 0.932-2.795 0.932 1.863 3.726 2.795 5.589 0.932 1.863 1.863 3.726 1.398 6.056l-5.124-5.59c-6.055 3.261-9.782 9.316-14.906 13.974-2.329 1.863-1.397 5.124-1.397 7.918-3.261 0-6.987-0.932-8.85 0.932-1.397 1.863-0.932 4.658-0.932 7.453-4.658-0.466-5.124-7.453-9.315-6.056-4.192 0.932-8.85 1.397-12.577 3.727 2.795 5.59-4.658 2.329-3.726 3.26-6.987-4.192-13.042-7.453-20.495-4.658-15.837-5.124-35.4-2.795-49.84-0.931 0-2.329 0.466-4.658-0.466-5.124-0.932 2.329-3.726 1.397-3.26 1.397-8.85-6.055-17.7-9.782-27.016-14.905-8.384 0.932-16.303-3.261-18.632-5.59-6.521-6.055-13.974-2.795-20.029-4.192-13.042-3.261-17.7-16.769-19.098-26.084-0.932-4.658-4.658-6.521-6.055-6.056-6.055-19.563-15.371-37.263-22.824-55.429-1.863-4.658-1.397-9.316-1.397-14.44 2.329 0.932 4.658 0.466 4.192-2.794-2.329-15.371-7.918-27.016-13.974-38.195 3.261-15.837 3.726-34.469 11.179-48.443 6.521-12.576 18.632-19.098 27.016-29.811 2.795-3.726 2.795-8.85 5.59-12.11 9.316-9.316 18.632-19.098 28.879-27.482 4.658-3.726 10.247 0 17.234-1.397 2.329-8.384 11.645-15.837 20.495-13.508 3.726 0.932 11.179-8.85 13.508-9.782 3.726-1.397 1.863 3.726 1.863 6.987 8.85-6.987 20.961-10.713 32.14-14.906" fill="#c10000" fill-rule="nonzero" stroke="none" stroke-width="1" stroke-linecap="butt" stroke-linejoin="miter" stroke-miterlimit="10" stroke-dasharray="" stroke-dashoffset="0" font-family="none" font-weight="none" font-size="none" text-anchor="none" style="mix-blend-mode: normal" data-fill-palette-color="tertiary"></path></g><g transform="matrix(1,0,0,1,64,142.86887835703)"><svg viewBox="0 0 192 74.26224328593997" height="74.26224328593997" width="192"><g><svg viewBox="0 0 192 74.26224328593997" height="74.26224328593997" width="192"><g><svg viewBox="0 0 192 74.26224328593997" height="74.26224328593997" width="192"><g><svg viewBox="0 0 192 74.26224328593997" height="74.26224328593997" width="192"><g id="textblocktransform"><svg viewBox="0 0 192 74.26224328593997" height="74.26224328593997" width="192" id="textblock"><g><svg viewBox="0 0 192 74.26224328593997" height="74.26224328593997" width="192"><g transform="matrix(1,0,0,1,0,0)"><svg width="192" viewBox="3.91 -35.86 92.72 35.86" height="74.26224328593997" data-palette-color="#c10000"><path d="M11.35-25.29L11.35-1.29Q11.35-0.56 11.07-0.28 10.79 0 10.08 0L10.08 0 5.18 0Q4.49 0 4.2-0.28 3.91-0.56 3.91-1.29L3.91-1.29 3.91-32.23Q3.91-33.67 4.47-34.34 5.03-35.01 6.45-35.01L6.45-35.01 8.72-35.01Q9.96-35.01 11.07-34.68 12.18-34.35 13.44-33.2 14.7-32.06 16.37-29.65 18.04-27.25 20.41-23.1L20.41-23.1Q22.68-19.14 24.06-16.77 25.44-14.4 26.2-13.16 26.95-11.91 27.33-11.38 27.71-10.84 27.95-10.5L27.95-10.5 27.95-31.1Q27.95-31.81 28.17-32.18L28.17-32.18Q29.22-33.79 31.08-35.57L31.08-35.57Q31.45-35.86 31.69-35.86L31.69-35.86Q31.96-35.86 32.28-35.57L32.28-35.57Q33.28-34.64 33.97-33.8 34.67-32.96 35.18-32.18L35.18-32.18Q35.4-31.79 35.4-31.1L35.4-31.1 35.4-2.03Q35.4-0.93 34.99-0.46 34.57 0 33.47 0L33.47 0 31.13 0Q30.08 0 28.98-0.35 27.88-0.71 26.49-1.97 25.1-3.22 23.19-5.88 21.29-8.54 18.6-13.16L18.6-13.16Q16.33-17.09 14.98-19.41 13.62-21.73 12.92-22.91 12.21-24.1 11.89-24.57 11.57-25.05 11.35-25.29L11.35-25.29ZM76.63-14.01L76.83-14.01Q77.17-15.33 77.57-16.61 77.97-17.9 78.56-19.48L78.56-19.48Q79.07-20.9 79.8-22.74 80.54-24.58 81.35-26.49 82.17-28.39 82.95-30.03 83.74-31.67 84.37-32.64L84.37-32.64Q85.15-33.84 86.07-34.42 86.98-35.01 88.76-35.01L88.76-35.01 91.96-35.01Q93.23-35.01 94.1-34.63 94.97-34.25 95.33-32.84L95.33-32.84Q95.6-31.79 95.84-29.76 96.09-27.73 96.26-24.15 96.43-20.56 96.53-14.93 96.63-9.3 96.63-1.03L96.63-1.03Q96.63-0.59 96.33-0.29 96.04 0 95.62 0L95.62 0 90.06 0Q89.64 0 89.35-0.29 89.06-0.59 89.06-1.05L89.06-1.05Q89.06-7.5 89.06-11.99 89.06-16.48 89.03-19.43 89.01-22.39 88.97-24.13 88.94-25.88 88.86-26.83L88.86-26.83 88.72-26.83Q87.42-23.85 85.96-20.2 84.49-16.55 83.1-12.68 81.71-8.81 80.61-5.13L80.61-5.13Q80.29-4.03 79.82-3.6 79.34-3.17 77.66-3.17L77.66-3.17 74.85-3.17Q73.41-3.17 72.93-3.54 72.46-3.91 72.11-5.13L72.11-5.13Q71.31-7.91 70.33-11.01 69.36-14.11 68.32-17.1 67.28-20.09 66.32-22.62 65.35-25.15 64.59-26.83L64.59-26.83 64.45-26.83Q64.25-23.95 64.11-19.82 63.96-15.7 63.87-10.86 63.79-6.03 63.76-1L63.76-1Q63.76-0.56 63.47-0.28 63.18 0 62.76 0L62.76 0 57.76 0Q57.34 0 57.05-0.29 56.76-0.59 56.76-1.05L56.76-1.05Q56.78-14.06 57.28-21.83 57.78-29.59 58.37-32.23L58.37-32.23Q58.76-33.96 59.75-34.48 60.74-35.01 62.01-35.01L62.01-35.01 65.96-35.01Q67.3-35.01 67.93-34.53 68.55-34.06 69.45-32.69L69.45-32.69Q69.99-31.88 70.73-30.27 71.48-28.66 72.29-26.7 73.09-24.73 73.81-22.81 74.53-20.9 75-19.48L75-19.48Q75.48-18.04 75.9-16.69 76.31-15.33 76.63-14.01L76.63-14.01Z" opacity="1" transform="matrix(1,0,0,1,0,0)" fill="#c10000" class="wordmark-text-0" data-fill-palette-color="primary" id="text-0"></path></svg></g></svg></g></svg></g></svg></g><g></g></svg></g></svg></g></svg></g></svg></g><defs></defs></svg><rect width="320" height="360" fill="none" stroke="none" visibility="hidden"></rect></g></svg></g></svg>